<svg width="27" height="33" viewBox="0 0 27 33" fill="none" xmlns="http://www.w3.org/2000/svg">
<g clip-path="url(#clip0_9_48076)">
<path d="M22.3114 17.5057C22.3255 16.2776 22.6532 15.0734 23.2632 14.0074C23.8732 12.9413 24.7454 12.0488 25.7971 11.4143C25.1222 10.4667 24.2382 9.68715 23.2136 9.13618C22.1889 8.58521 21.0512 8.27759 19.8885 8.23714C17.3742 7.98571 14.9856 9.71143 13.7171 9.71143C12.4485 9.71143 10.4714 8.27143 8.35707 8.31714C6.99107 8.35125 5.65722 8.73869 4.48552 9.44171C3.31382 10.1447 2.34427 11.1393 1.67135 12.3286C-1.14007 17.22 0.974211 24.5 3.78564 28.4429C5.14564 30.3971 6.75707 32.58 8.88278 32.5C11.0085 32.42 11.7056 31.1857 14.1742 31.1857C16.6428 31.1857 17.3056 32.5 19.4656 32.5C21.6256 32.5 23.0656 30.5229 24.4028 28.5686C25.3888 27.1675 26.1593 25.6266 26.6885 23.9971C25.4018 23.4649 24.3004 22.5654 23.5219 21.4109C22.7435 20.2564 22.3224 18.8981 22.3114 17.5057ZM18.2428 5.60857C18.8466 4.91036 19.3059 4.09937 19.5943 3.2225C19.8827 2.34563 19.9943 1.42029 19.9228 0.5C18.1051 0.689014 16.4246 1.55371 15.2142 2.92286C14.6112 3.5906 14.1487 4.37281 13.8542 5.22295C13.5597 6.07309 13.4392 6.97378 13.4999 7.87143C14.4106 7.88052 15.3114 7.68137 16.1334 7.28919C16.9554 6.89701 17.6769 6.32217 18.2428 5.60857Z" fill="white"/>
</g>
<defs>
<clipPath id="clip0_9_48076">
<rect width="26.2857" height="32" fill="white" transform="translate(0.357178 0.5)"/>
</clipPath>
</defs>
</svg>
