<svg width="28" height="31" viewBox="0 0 28 31" fill="none" xmlns="http://www.w3.org/2000/svg">
<g clip-path="url(#clip0_9_48072)">
<path fill-rule="evenodd" clip-rule="evenodd" d="M2.5 10.1498C1.96957 10.1498 1.46086 10.3605 1.08579 10.7356C0.710714 11.1107 0.5 11.6194 0.5 12.1498L0.5 19.2698C0.5 19.8003 0.710714 20.309 1.08579 20.684C1.46086 21.0591 1.96957 21.2698 2.5 21.2698C3.03043 21.2698 3.53914 21.0591 3.91421 20.684C4.28929 20.309 4.5 19.8003 4.5 19.2698V12.1898C4.50532 11.9238 4.45752 11.6595 4.3594 11.4122C4.26127 11.1649 4.1148 10.9397 3.92855 10.7497C3.7423 10.5597 3.52002 10.4088 3.27472 10.3058C3.02942 10.2028 2.76604 10.1498 2.5 10.1498ZM6.5 23.8898H8.5V28.9698C8.5 29.3677 8.65804 29.7492 8.93934 30.0305C9.22064 30.3118 9.60218 30.4698 10 30.4698C10.3978 30.4698 10.7794 30.3118 11.0607 30.0305C11.342 29.7492 11.5 29.3677 11.5 28.9698V23.8898H16.5V28.9698C16.5 29.3677 16.658 29.7492 16.9393 30.0305C17.2206 30.3118 17.6022 30.4698 18 30.4698C18.3978 30.4698 18.7794 30.3118 19.0607 30.0305C19.342 29.7492 19.5 29.3677 19.5 28.9698V23.8898H21.5V10.1498H6.5V23.8898ZM18.43 3.28983C18.4343 3.27007 18.4343 3.2496 18.43 3.22983L19.38 1.22983C19.4174 1.16786 19.4412 1.09862 19.4499 1.02673C19.4585 0.954836 19.4516 0.881937 19.4299 0.812879C19.4081 0.743821 19.3719 0.680187 19.3237 0.626211C19.2754 0.572234 19.2162 0.529152 19.15 0.49983C19.0883 0.47574 19.0225 0.464142 18.9563 0.465708C18.8901 0.467274 18.8248 0.481973 18.7644 0.508953C18.7039 0.535932 18.6494 0.574654 18.604 0.622871C18.5586 0.671087 18.5233 0.727839 18.5 0.78983L17.57 2.78983C16.4727 2.2613 15.2678 1.99431 14.05 2.00983C12.7858 1.99166 11.5341 2.26183 10.39 2.79983L9.5 0.78983C9.47749 0.721517 9.44051 0.658864 9.39158 0.606147C9.34266 0.55343 9.28293 0.51189 9.21648 0.484361C9.15003 0.456833 9.07843 0.443964 9.00655 0.446634C8.93468 0.449303 8.86422 0.467448 8.8 0.49983C8.73617 0.527673 8.67871 0.568295 8.63118 0.619191C8.58364 0.670087 8.54704 0.73018 8.52361 0.795764C8.50019 0.861348 8.49045 0.931035 8.49499 1.00053C8.49952 1.07002 8.51825 1.13785 8.55 1.19983L9.5 3.19983V3.25983C8.68199 3.8088 7.99102 4.52657 7.47355 5.36486C6.95609 6.20316 6.62413 7.14254 6.5 8.11983H21.5C21.3574 7.1439 21.0102 6.20912 20.4812 5.37675C19.9521 4.54438 19.2531 3.8332 18.43 3.28983ZM11.5 6.58983C11.3022 6.58983 11.1089 6.53118 10.9444 6.4213C10.78 6.31142 10.6518 6.15524 10.5761 5.97251C10.5004 5.78979 10.4806 5.58872 10.5192 5.39474C10.5578 5.20076 10.653 5.02258 10.7929 4.88272C10.9327 4.74287 11.1109 4.64763 11.3049 4.60905C11.4989 4.57046 11.7 4.59026 11.8827 4.66595C12.0654 4.74164 12.2216 4.86981 12.3315 5.03426C12.4414 5.19871 12.5 5.39205 12.5 5.58983C12.5 5.85505 12.3946 6.1094 12.2071 6.29694C12.0196 6.48447 11.7652 6.58983 11.5 6.58983ZM16.5 6.58983C16.3022 6.58983 16.1089 6.53118 15.9444 6.4213C15.78 6.31142 15.6518 6.15524 15.5761 5.97251C15.5004 5.78979 15.4806 5.58872 15.5192 5.39474C15.5578 5.20076 15.653 5.02258 15.7929 4.88272C15.9327 4.74287 16.1109 4.64763 16.3049 4.60905C16.4989 4.57046 16.7 4.59026 16.8827 4.66595C17.0654 4.74164 17.2216 4.86981 17.3315 5.03426C17.4414 5.19871 17.5 5.39205 17.5 5.58983C17.5 5.85505 17.3946 6.1094 17.2071 6.29694C17.0196 6.48447 16.7652 6.58983 16.5 6.58983ZM25.5 10.1498C24.9696 10.1498 24.4609 10.3605 24.0858 10.7356C23.7107 11.1107 23.5 11.6194 23.5 12.1498V19.2698C23.5 19.8003 23.7107 20.309 24.0858 20.684C24.4609 21.0591 24.9696 21.2698 25.5 21.2698C26.0304 21.2698 26.5391 21.0591 26.9142 20.684C27.2893 20.309 27.5 19.8003 27.5 19.2698V12.1898C27.5053 11.9238 27.4575 11.6595 27.3594 11.4122C27.2613 11.1649 27.1148 10.9397 26.9285 10.7497C26.7423 10.5597 26.52 10.4088 26.2747 10.3058C26.0294 10.2028 25.766 10.1498 25.5 10.1498Z" fill="white"/>
</g>
<defs>
<clipPath id="clip0_9_48072">
<rect width="27" height="30" fill="white" transform="translate(0.5 0.5)"/>
</clipPath>
</defs>
</svg>
