<svg width="48" height="48" viewBox="0 0 48 48" fill="none" xmlns="http://www.w3.org/2000/svg">
<path d="M44.1281 0.885094C44.4094 1.17094 44.625 1.5 44.775 1.85156C44.9156 2.20312 44.9156 2.5875 45 2.99062V3V12C45 13.6594 43.6594 15 42 15C40.3406 15 39 13.6594 39 12V10.2469L29.1188 20.1188C28.0125 21.2344 26.2406 21.3 25.05 20.2781L16.4156 12.9469L7.95187 20.2781C6.69469 21.3563 4.8 21.2063 3.72188 19.95C2.64375 18.6938 2.79 16.8 4.04719 15.7219L14.55 6.72187C15.675 5.75906 17.325 5.75906 18.45 6.72187L26.8406 13.9125L34.7531 6H33C31.3406 6 30 4.65656 30 3C30 1.34344 31.3406 0 33 0H41.9156C42.825 0 43.575 0.333188 44.1188 0.872344L44.1281 0.885094ZM0 28.5C0 26.0156 2.01469 24 4.5 24H43.5C45.9844 24 48 26.0156 48 28.5V43.5C48 45.9844 45.9844 48 43.5 48H4.5C2.01469 48 0 45.9844 0 43.5V28.5ZM4.5 43.5H9C9 41.0156 6.98531 39 4.5 39V43.5ZM4.5 28.5V33C6.98531 33 9 30.9844 9 28.5H4.5ZM43.5 39C41.0156 39 39 41.0156 39 43.5H43.5V39ZM39 28.5C39 30.9844 41.0156 33 43.5 33V28.5H39ZM24 30C20.6906 30 18 32.6906 18 36C18 39.3094 20.6906 42 24 42C27.3094 42 30 39.3094 30 36C30 32.6906 27.3094 30 24 30Z" fill="white"/>
</svg>
