<svg width="60" height="48" viewBox="0 0 60 48" fill="none" xmlns="http://www.w3.org/2000/svg">
<path d="M6.00345 22.4151C6.00345 27.0641 8.00783 31.2369 11.3444 34.6682C10.1725 39.3923 6.25283 43.6026 6.20595 43.6494C6.00092 43.8648 5.94523 44.1841 6.06533 44.4654C6.18833 44.7466 6.45204 44.9151 6.75083 44.9151C12.9674 44.9151 17.6258 41.9338 19.9321 40.0954C22.9996 41.2494 26.4027 41.9151 30.0008 41.9151C33.5061 41.9151 36.824 41.2904 39.8258 40.1938L7.77533 15.1588C6.63908 17.4276 6.00345 19.9026 6.00345 22.4151ZM59.1381 43.9776L48.0663 35.2973C51.6663 31.8744 54.0006 27.4119 54.0006 22.4994C54.0006 11.7276 43.2569 3.08382 30.085 3.08382C23.7344 3.08382 17.9819 5.10414 13.6881 8.37789L3.63908 0.479166C2.64533 -0.29624 1.23439 -0.103302 0.480169 0.86101C-0.287362 1.83976 -0.116456 3.25445 0.862013 4.02038L56.2776 47.436C57.262 48.205 58.6748 48.0297 59.437 47.0542C60.2913 46.1619 60.1131 44.7463 59.1381 43.9776Z" fill="white"/>
</svg>
