<svg width="48" height="48" viewBox="0 0 48 48" fill="none" xmlns="http://www.w3.org/2000/svg">
<path d="M48 23.9156C48 24.0844 47.9156 24.1688 47.9156 24.2531C47.9625 27.675 44.85 29.9156 41.4281 29.9156H32.25C29.7656 29.9156 27.75 32.0156 27.75 34.5C27.75 34.8187 27.7875 35.1281 27.8438 35.4281C28.05 36.3844 28.4531 37.2281 28.8656 38.2312C29.4281 39.525 30 40.8094 30 42.1687C30 45.1594 27.975 47.8594 24.9938 47.9812C24.6656 47.9906 24.3281 48 24 48C10.7438 48 0 37.2562 0 24C0 10.7438 10.7438 0 24 0C37.2562 0 48 10.7438 48 24V23.9156ZM9 23.9156C7.34344 23.9156 6 25.3406 6 26.9156C6 28.6594 7.34344 29.9156 9 29.9156C10.6594 29.9156 12 28.6594 12 26.9156C12 25.3406 10.6594 23.9156 9 23.9156ZM12 17.9156C13.6594 17.9156 15 16.6594 15 14.9156C15 13.3406 13.6594 11.9156 12 11.9156C10.3406 11.9156 9 13.3406 9 14.9156C9 16.6594 10.3406 17.9156 12 17.9156ZM24 5.91562C22.3406 5.91562 21 7.34344 21 8.91562C21 10.6594 22.3406 11.9156 24 11.9156C25.6594 11.9156 27 10.6594 27 8.91562C27 7.34344 25.6594 5.91562 24 5.91562ZM36 17.9156C37.6594 17.9156 39 16.6594 39 14.9156C39 13.3406 37.6594 11.9156 36 11.9156C34.3406 11.9156 33 13.3406 33 14.9156C33 16.6594 34.3406 17.9156 36 17.9156Z" fill="white"/>
</svg>
