<svg width="48" height="48" viewBox="0 0 48 48" fill="none" xmlns="http://www.w3.org/2000/svg">
<path d="M48 24C48 37.2562 37.2562 48 24 48C10.7438 48 0 37.2562 0 24C0 10.7438 10.7438 0 24 0C37.2562 0 48 10.7438 48 24ZM24.9656 4.52344L21.7969 6.9C21.3 7.27781 21 7.87031 21 8.50031V9.34875C21 9.98438 21.5156 10.5 22.1531 10.5C22.3781 10.5 22.6031 10.4344 22.7906 10.3031L26.7094 7.69312C26.8969 7.5675 27.1219 7.5 27.3469 7.5H27.4406C28.0219 7.5 28.5 7.97531 28.5 8.56031C28.5 8.84156 28.3875 9.11156 28.1906 9.31031L26.325 11.175C25.7812 11.6344 25.1156 12.1312 24.3938 12.3656L21.9 13.2C21.3656 13.3781 21 13.8844 21 14.4562C21 14.8031 20.8594 15.1406 20.6156 15.3844L18.9281 17.0719C18.3375 17.6625 18 18.4781 18 19.3219V19.7156C18 21.2531 19.275 22.5 20.8031 22.5C21.8344 22.5 22.7906 21.9188 23.25 21L23.625 20.2406C23.8594 19.7906 24.3187 19.5 24.825 19.5C25.2562 19.5 25.65 19.6969 25.9031 20.0344L27.4313 22.0781C27.6281 22.3406 27.9469 22.5 28.2844 22.5C29.0719 22.5 29.5875 21.6656 29.2312 20.9625L29.1281 20.7469C28.7906 20.0906 29.1281 19.2938 29.8219 19.0594L31.8094 18.3937C32.5219 18.1594 33 17.4938 33 16.7438C33 15.7781 33.7781 15 34.7438 15H37.5C38.325 15 39 15.675 39 16.5C39 17.325 38.325 18 37.5 18H35.5594C34.8844 18 34.2281 18.2719 33.75 18.75L33.3094 19.1906C33.1125 19.3875 33 19.6594 33 19.9406C33 20.5219 33.4781 21 34.0594 21H35.1188C35.6813 21 36.225 21.225 36.6188 21.6188L37.2375 22.2375C37.3219 22.3219 37.5 22.6313 37.5 22.875C37.5 23.1187 37.3219 23.3438 37.2375 23.5125L36.5344 24.2156C36.1875 24.4781 36 25.0219 36 25.5C36 25.9781 36.1875 26.4375 36.5344 26.7844L38.25 28.5C39.2062 29.4562 40.5094 30 41.8688 30H42.4781C43.1719 28.1063 43.5 26.0906 43.5 24C43.5 13.5562 35.2875 5.02875 24.9656 4.52344ZM41.1 33.3844C40.7531 33.1406 40.3312 33 39.8812 33C39.3187 33 38.775 32.775 38.3812 32.3812L37.0406 31.0406C36.4031 30.4031 35.4281 30 34.4156 30C33.5063 30 32.6156 29.6719 31.9219 29.0813L29.3531 26.9437C28.35 26.0156 26.9625 25.4156 25.5281 25.4156H23.5687C22.3781 25.4156 21.225 25.8469 20.2406 26.5031L17.6719 28.2188C16.0031 29.3344 15 31.2094 15 33.2156V33.5156C15 35.1094 15.6281 36.6281 16.7531 37.7531L18.2531 39.2531C19.05 40.05 20.1281 40.5 21.2531 40.5H23.25C24.4969 40.5 25.5 41.5031 25.5 42.75C25.5 42.9844 25.5375 43.2188 25.6031 43.4344C32.2969 42.8906 38.025 38.9719 41.1 33.3844ZM15.4406 9.44062L12.4406 12.4406C11.85 13.0219 11.85 13.9781 12.4406 14.5594C13.0219 15.15 13.9781 15.15 14.5594 14.5594L17.5594 11.5594C18.15 10.9781 18.15 10.0219 17.5594 9.44062C16.9781 8.85375 16.0219 8.85375 15.4406 9.44062Z" fill="white"/>
</svg>
