<svg width="60" height="48" viewBox="0 0 60 48" fill="none" xmlns="http://www.w3.org/2000/svg">
<path d="M41.9157 21C41.9157 19.8225 41.4675 18.6441 40.5704 17.7413L24.1735 1.34438C23.3532 0.448688 22.172 0 20.9157 0C19.8189 0 18.647 0.448688 17.7376 1.34531L1.34542 17.7375C0.448509 18.6469 0 19.8188 0 20.9156C0 22.0931 0.448594 23.2753 1.34531 24.1781L17.7422 40.575C18.6445 41.4714 19.8225 41.9203 21 41.9203C22.1775 41.9203 23.3559 41.4719 24.2578 40.575L40.6547 24.1781C41.5501 23.3531 41.9157 22.1812 41.9157 21ZM9.0001 23.25C7.75792 23.25 6.83448 22.2422 6.83448 21.0844C6.83448 19.9266 7.84229 18.9188 9.0001 18.9188C10.1579 18.9188 11.2501 19.7625 11.2501 21C11.2501 22.2375 10.247 23.25 9.0001 23.25ZM21.0001 35.25C19.7579 35.25 18.8345 34.2422 18.8345 33.0844C18.8345 31.9266 19.8423 30.9187 21.0001 30.9187C22.1579 30.9187 23.1657 31.9266 23.1657 33.0844C23.1657 34.2422 22.247 35.25 21.0001 35.25ZM21.0001 23.25C19.7579 23.25 18.8345 22.2422 18.8345 21.0844C18.8345 19.9266 19.8423 18.9188 21.0001 18.9188C22.1579 18.9188 23.2501 19.7625 23.2501 21C23.2501 22.2375 22.247 23.25 21.0001 23.25ZM21.0001 11.25C19.7579 11.25 18.8345 10.2422 18.8345 9.08438C18.8345 7.92656 19.8423 6.91875 21.0001 6.91875C22.1579 6.91875 23.1657 7.92656 23.1657 9.08438C23.1657 10.2422 22.247 11.25 21.0001 11.25ZM33.0001 23.25C31.7579 23.25 30.8345 22.2422 30.8345 21.0844C30.8345 19.9266 31.8423 18.9188 33.0001 18.9188C34.1579 18.9188 35.1657 19.9266 35.1657 21.0844C35.1657 22.2422 34.247 23.25 33.0001 23.25ZM55.4157 18H44.2876C44.7018 18.9628 44.9067 19.9922 44.9067 21.0216C44.9067 22.9622 44.1694 24.9009 42.6914 26.3784L29.9227 39.1472V43.4944C30.0001 45.9844 32.0157 48 34.5001 48H55.4157C57.9001 48 59.8314 45.9844 59.8314 43.5844V22.5C59.9157 20.0156 57.9845 18 55.4157 18ZM44.9157 35.25C43.6735 35.25 42.7501 34.2422 42.7501 33.0844C42.7501 31.9266 43.7579 30.9187 44.9157 30.9187C46.0735 30.9187 47.0814 31.9266 47.0814 33.0844C47.0814 34.2422 46.2376 35.25 44.9157 35.25Z" fill="white"/>
</svg>
