<svg width="263" height="263" viewBox="0 0 263 263" fill="none" xmlns="http://www.w3.org/2000/svg">
<path d="M98.1627 115.062C98.1627 105.96 90.7966 98.6045 81.7252 98.6045L73.9688 98.625C55.8156 98.625 41.0938 113.347 41.0938 131.541V156.089C41.0938 174.289 55.8361 189.031 73.9688 189.031H82.1875C91.2589 189.031 98.625 181.655 98.625 172.563L98.1627 115.062ZM131.5 0C57.9936 0 2.35416 61.1783 0.0106844 131.5L0 152.047C0 158.879 5.52197 164.375 11.8658 164.375C18.2097 164.375 24.6562 158.879 24.6562 152.047V131.5C24.6562 72.5818 72.6024 24.759 131.5 24.759C190.418 24.759 238.344 72.5818 238.344 131.5V205.469C238.344 216.816 229.144 226.016 217.797 226.016H160.933C156.67 218.67 148.811 213.688 139.719 213.688H124.206C112.284 213.688 101.347 221.747 99.1027 233.459C96.0566 249.234 108.077 263 122.819 263H139.719C148.821 263 156.685 258.012 160.954 250.672H217.797C242.761 250.672 263 230.433 263 205.469V131.5C260.637 61.1783 205.006 0 131.5 0ZM189.031 189.031C207.184 189.031 221.906 174.289 221.906 156.089V131.551C221.906 113.367 207.164 98.625 189.031 98.625H180.812C171.741 98.625 164.375 105.991 164.375 115.083V172.542C164.375 181.686 171.721 189.031 180.812 189.031H189.031Z" fill="#2F4F72"/>
</svg>
